<svg xmlns="http://www.w3.org/2000/svg" width="119" height="134" viewBox="0 0 119 134">
    <path fill="#CE850F" fill-rule="evenodd" d="M84.31 108.915c-.244-.047-.16-.001-.1-.023 6.775-2.458 13.299-5.409 18.88-10.077 8.546-7.147 11.013-15.751 7.329-25.737-2.733-7.406-7.436-13.488-13.169-18.809-7.547-7.003-15.772-13.165-24.063-19.24-.129-.095-.297-.136-.659-.295.41.642.677 1.072.954 1.496 4.455 6.814 9.583 13.088 15.102 19.068 6.438 6.975 9.602 15.24 9.207 24.78-.293 7.061-2.45 13.573-6.317 19.438-2.19 3.32-4.819 6.35-7.164 9.399m-39.2-73.903l-.37-.273c-9.341 6.952-18.8 13.772-27.011 22.095-4.525 4.585-8.163 9.83-10.464 15.908-3.586 9.48-1.718 17.686 5.621 24.665 3.708 3.525 8.042 6.118 12.654 8.251 2.616 1.21 5.3 2.27 7.953 3.398l.274-.389c-.4-.308-.839-.577-1.192-.93-3.151-3.157-5.822-6.68-7.934-10.611-3.91-7.277-5.688-14.99-4.583-23.25.968-7.232 4.176-13.394 9.048-18.763 2.476-2.73 4.984-5.447 7.263-8.338 3.023-3.835 5.837-7.834 8.74-11.763M43.69 110.65l.263-.175c-.172-.389-.347-.777-.513-1.168-.184-.432-.376-.862-.539-1.303-5.604-15.141-5.406-30.32.418-45.267 2.992-7.68 6.037-15.293 7.697-23.389.454-2.214.886-4.432 1.328-6.649-1.162 1.473-2.09 3.012-3.052 4.53-4.868 7.676-10.527 14.728-16.711 21.383-5.417 5.83-8.293 12.786-7.917 20.76.654 13.842 8.16 23.628 19.026 31.278m29.373.304c6.968-4.31 12.493-9.966 16.17-17.31 3.06-6.11 4.381-12.558 3.38-19.385-.88-6.004-3.468-11.218-7.596-15.62C77.39 50.506 70.682 41.7 65.12 32.028c-.114-.197-.253-.38-.412-.618-.044.149-.09.218-.08.278 1.708 9.833 4.118 19.444 8.205 28.615 5.554 12.458 6.635 25.449 4.032 38.788-.798 4.09-2.12 8.011-3.803 11.862m-12.562 7.492c.387-.257.746-.463 1.069-.716 3.788-2.97 6.269-6.909 7.949-11.317 5.552-14.568 5.173-29.119-.864-43.415-3.153-7.467-5.797-15.052-7.406-22.985-1.009-4.978-1.85-9.99-2.735-14.817-.55 3.32-1.07 6.844-1.724 10.342-1.64 8.759-3.786 17.384-7.536 25.512-5.331 11.556-6.704 23.584-4.422 36.044 1.09 5.95 3.074 11.594 6.744 16.499 1.06 1.417 2.356 2.658 3.647 4.096.612-2.009 1.39-2.727 2.69-2.7 1.44.032 2.008.768 2.588 3.457m14.974-1.43c.78 0 1.56-.017 2.34.004 1.62.046 2.706 1.083 2.666 2.52-.038 1.4-1.099 2.37-2.671 2.378-3.442.015-6.884.005-10.326.005-.027.137-.052.274-.078.412 1.914.412 3.826.833 5.744 1.227.34.07.706.01 1.057.045 1.439.138 2.44 1.233 2.368 2.575-.07 1.3-1.125 2.443-2.495 2.283-2.322-.27-4.669-.612-6.904-1.269-1.972-.58-3.807-1.63-5.7-2.479-.346-.155-.677-.342-1.16-.587 0 2.308.023 4.456-.015 6.604-.01.572-.082 1.204-.34 1.697-.523 1.002-1.447 1.414-2.573 1.218-1.105-.194-1.936-1.144-1.967-2.331-.048-1.805-.016-3.611-.017-5.417v-1.303c-.521.323-.88.54-1.23.765-3.461 2.216-7.101 4.004-11.203 4.683a9.996 9.996 0 0 1-1.52.151c-1.323.015-2.351-.9-2.494-2.174-.137-1.227.712-2.43 2.033-2.6 2.884-.372 5.556-1.316 8.087-2.712.274-.15.545-.308.81-.474.052-.032.07-.117.18-.314h-2.836c-3.022 0-6.044.007-9.066-.003-1.672-.006-2.753-.94-2.79-2.373-.038-1.485 1.063-2.503 2.771-2.527 1.323-.02 2.646-.004 3.998-.199-1.892-.572-3.792-1.118-5.675-1.72-8.213-2.625-16.14-5.862-23.142-11.024-4.886-3.602-8.912-7.94-11.101-13.71C-.475 83.248.36 76.26 3.293 69.421c3.392-7.912 8.752-14.36 15.111-20.04 9.88-8.825 20.572-16.601 31.367-24.245.787-.557 1.413-1.42 1.942-2.25 2.745-4.296 3.26-9.15 3.418-14.086.064-2 .187-3.999.263-5.998.066-1.72 1.006-2.78 2.519-2.8 2.743-.037 3.704.693 3.822 2.803.226 4.035.466 8.069.764 12.098.05.675.397 1.337.655 1.986 2.74 6.894 2.748 6.885 8.762 11.188 9.512 6.808 18.898 13.777 27.6 21.618 6.46 5.82 11.862 12.443 15.112 20.597 4.932 8.747 6.35 17.31-1.871 25.08-2.933 4.485-6.942 7.865-11.42 10.71-7.689 4.884-16.154 7.927-24.853 10.407-.333.095-.664.196-.996.295l-.013.232"/>
</svg>
